<svg width="12" height="11" fill="none" xmlns="http://www.w3.org/2000/svg"><path d="M3.735 0A3.247 3.247 0 0 0 .5 3.235v4.53A3.247 3.247 0 0 0 3.735 11h4.53A3.247 3.247 0 0 0 11.5 7.766V3.235A3.247 3.247 0 0 0 8.265 0h-4.53Zm0 1h4.53A2.231 2.231 0 0 1 10.5 3.235v4.53A2.23 2.23 0 0 1 8.265 10h-4.53A2.23 2.23 0 0 1 1.5 7.766V3.235A2.232 2.232 0 0 1 3.735 1Zm5.218 1.094a.451.451 0 0 0-.453.453.45.45 0 0 0 .627.42.451.451 0 0 0 .246-.594.451.451 0 0 0-.42-.279ZM6 2.5c-1.65 0-3 1.35-3 3s1.35 3 3 3 3-1.35 3-3-1.35-3-3-3Zm0 1c1.112 0 2 .888 2 2s-.888 2-2 2-2-.888-2-2 .888-2 2-2Z" fill="#9F9F9F"/></svg>