<svg width="12" height="10" fill="none" xmlns="http://www.w3.org/2000/svg"><path d="M12 1.157c-.45.2-.926.33-1.414.387A2.47 2.47 0 0 0 11.668.182a4.96 4.96 0 0 1-1.563.598A2.462 2.462 0 0 0 5.91 3.024 6.978 6.978 0 0 1 .835.452a2.458 2.458 0 0 0 .762 3.288 2.448 2.448 0 0 1-1.115-.31v.032a2.461 2.461 0 0 0 1.975 2.414c-.362.1-.743.114-1.112.043a2.466 2.466 0 0 0 2.299 1.71A4.938 4.938 0 0 1 0 8.648a6.962 6.962 0 0 0 3.773 1.108c4.53 0 7.006-3.752 7.006-7.006 0-.105-.004-.213-.008-.319.482-.348.898-.78 1.229-1.272Z" fill="#9F9F9F"/></svg>